<svg id="Layer_1" data-name="Layer 1" xmlns="http://www.w3.org/2000/svg" viewBox="0 0 1080 1080"><defs><style>.cls-1{fill:#ed1c24;}</style></defs><title>Artboard 1</title><path class="cls-1" d="M842.91,964.76c-225.94,0-367.18-130-395.46-338.7-5.22-38.54,30.19-70.2,67.95-60.9q77.43,19.07,150.37,61.67a55.09,55.09,0,0,0,73-16.35l7.52-10.82c18.28-26.33,10.47-62.79-17.18-79-60.39-35.41-123.55-61.11-188.43-76.61q-14.28-3.42-28.72-6.17c-33-6.3-52.63-40.66-41.52-72.35,56.54-161.25,194.27-250.2,378.69-250.2,60.14,0,113.61,8.93,157.75,22.7a55.28,55.28,0,0,0,69.66-36.9l1.21-4.11a55.14,55.14,0,0,0-36.37-68.35c-44.48-13.82-110-26.28-196.92-26.28-268.83,0-467.1,152.94-526.3,392.15a55.32,55.32,0,0,1-44.62,41.24c-106.69,17.81-192.44,56.69-243.92,84.9a55.21,55.21,0,0,0-18,80.88l37.64,51.76-.15.1c.93-.67,73.76-52.26,184.29-82.38,33.06-9,66.46,13.74,69.66,47.86,27.88,297.93,238.48,458.8,512.08,458.8,93.28,0,171.5-13.39,226.06-30.31a55.18,55.18,0,0,0,37-66.66h0a55.2,55.2,0,0,0-69-39C960.29,956.12,901.19,964.76,842.91,964.76Z"/></svg>